<svg xmlns="http://www.w3.org/2000/svg" width="21.151" height="11.898" viewBox="0 0 21.151 11.898">
  <path id="Icon_metro-dollar" data-name="Icon metro-dollar" d="M2.571,20.574V8.676H23.722v11.9H2.571ZM3.893,9.957v9.295H22.4V9.957Zm12.559,4.668c0-2.19-1.479-3.966-3.3-3.966h8.593v7.932H13.146c1.826,0,3.3-1.776,3.3-3.966ZM19.1,15.947c.547,0,.991-.592.991-1.322S19.643,13.3,19.1,13.3s-.991.592-.991,1.322S18.548,15.947,19.1,15.947Zm-4.549-2.989a.169.169,0,0,1-.041.079.1.1,0,0,1-.072.024A.345.345,0,0,1,14.289,13c-.066-.039-.147-.08-.243-.125a2.437,2.437,0,0,0-.334-.124,1.485,1.485,0,0,0-.417-.055.989.989,0,0,0-.31.043.64.64,0,0,0-.221.119.476.476,0,0,0-.132.183.6.6,0,0,0-.043.226.5.5,0,0,0,.1.308.931.931,0,0,0,.26.231,2.682,2.682,0,0,0,.37.19c.137.059.278.122.421.188a4.237,4.237,0,0,1,.421.225,1.676,1.676,0,0,1,.368.3,1.427,1.427,0,0,1,.26.412,1.446,1.446,0,0,1,.1.56,1.652,1.652,0,0,1-.156.739,1.53,1.53,0,0,1-.426.53,1.846,1.846,0,0,1-.627.32c-.03.009-.063.013-.095.02v.722h-.65v-.637h-.024a2.786,2.786,0,0,1-.514-.044,3.068,3.068,0,0,1-.419-.108,1.838,1.838,0,0,1-.3-.133.853.853,0,0,1-.175-.123.31.31,0,0,1-.077-.155,1.411,1.411,0,0,1-.023-.291c0-.085,0-.157.009-.215a.641.641,0,0,1,.027-.141.15.15,0,0,1,.05-.077.121.121,0,0,1,.072-.022.344.344,0,0,1,.163.068,2.82,2.82,0,0,0,.27.151,2.473,2.473,0,0,0,.395.151,1.885,1.885,0,0,0,.531.068,1.221,1.221,0,0,0,.355-.048.789.789,0,0,0,.266-.134.579.579,0,0,0,.167-.215.682.682,0,0,0,.058-.286.505.505,0,0,0-.1-.312.992.992,0,0,0-.258-.231,2.7,2.7,0,0,0-.361-.19q-.2-.089-.417-.188a3.74,3.74,0,0,1-.417-.225,1.68,1.68,0,0,1-.361-.3,1.417,1.417,0,0,1-.258-.415,1.5,1.5,0,0,1-.1-.574,1.521,1.521,0,0,1,.142-.675,1.382,1.382,0,0,1,.384-.483,1.646,1.646,0,0,1,.57-.287,2.316,2.316,0,0,1,.348-.072v-.683h.65v.683c.026,0,.052,0,.077.006a2.575,2.575,0,0,1,.355.078,1.9,1.9,0,0,1,.293.11.678.678,0,0,1,.169.1.313.313,0,0,1,.056.069.375.375,0,0,1,.024.077.738.738,0,0,1,.014.12c0,.048,0,.108,0,.179s0,.148-.006.2a.924.924,0,0,1-.022.134Zm-4.7,1.667c0,2.19,1.479,3.966,3.3,3.966H4.554V10.659h8.593c-1.826,0-3.3,1.776-3.3,3.966ZM7.2,13.3c-.548,0-.991.592-.991,1.322s.444,1.322.991,1.322.991-.592.991-1.322S7.745,13.3,7.2,13.3Z" transform="translate(-2.571 -8.676)" fill="#fff"/>
</svg>
