<svg xmlns="http://www.w3.org/2000/svg" width="21" height="21" viewBox="0 0 21 21">
  <g id="Icon_ionic-ios-arrow-dropdown" data-name="Icon ionic-ios-arrow-dropdown" transform="translate(-3.375 -3.375)">
    <path id="Path_8" data-name="Path 8" d="M10.266,14.7a.983.983,0,0,0,0,1.381l4.822,4.827a.968.968,0,0,0,1.34.03l4.751-4.756a.973.973,0,1,0-1.37-1.381l-4.081,4.038L11.641,14.7A.969.969,0,0,0,10.266,14.7Z" transform="translate(-1.852 -3.122)" fill="#fff"/>
    <path id="Path_9" data-name="Path 9" d="M3.375,13.875a10.5,10.5,0,1,0,10.5-10.5A10.5,10.5,0,0,0,3.375,13.875ZM20.155,7.6A8.881,8.881,0,1,1,7.6,20.155,8.881,8.881,0,1,1,20.155,7.6Z" transform="translate(0 0)" fill="#fff" opacity="0.75"/>
  </g>
</svg>
