<svg xmlns="http://www.w3.org/2000/svg" width="21" height="21" viewBox="0 0 21 21">
  <g id="Icon_ionic-ios-arrow-dropdown" data-name="Icon ionic-ios-arrow-dropdown" transform="translate(-3.375 -3.375)">
    <path id="Path_8" data-name="Path 8" d="M10.266,20.907a.983.983,0,0,1,0-1.381L15.088,14.7a.968.968,0,0,1,1.34-.03l4.751,4.756a.973.973,0,1,1-1.37,1.381l-4.081-4.038-4.086,4.144A.969.969,0,0,1,10.266,20.907Z" transform="translate(-1.852 -4.737)" fill="#fff"/>
    <path id="Path_9" data-name="Path 9" d="M3.375,13.875a10.5,10.5,0,1,1,10.5,10.5A10.5,10.5,0,0,1,3.375,13.875Zm16.78,6.28A8.881,8.881,0,1,0,7.6,7.6a8.881,8.881,0,1,0,12.56,12.56Z" transform="translate(0 0)" fill="#fff" opacity="0.75"/>
  </g>
</svg>
