<svg xmlns="http://www.w3.org/2000/svg" width="20.346" height="18.085" viewBox="0 0 20.346 18.085">
  <path id="Icon_awesome-shopping-cart" data-name="Icon awesome-shopping-cart" d="M18.654,10.643,20.324,3.3A.848.848,0,0,0,19.5,2.261H5.624L5.3.678A.848.848,0,0,0,4.469,0H.848A.848.848,0,0,0,0,.848v.565a.848.848,0,0,0,.848.848H3.316L5.8,14.392a1.978,1.978,0,1,0,2.368.3h7.405a1.978,1.978,0,1,0,2.246-.368l.195-.857a.848.848,0,0,0-.827-1.036H7.7L7.473,11.3H17.828A.848.848,0,0,0,18.654,10.643Z" fill="#fff"/>
</svg>
