<svg xmlns="http://www.w3.org/2000/svg" width="16.243" height="16.239" viewBox="0 0 16.243 16.239">
  <path id="Icon_awesome-instagram" data-name="Icon awesome-instagram" d="M8.118,6.194a4.164,4.164,0,1,0,4.164,4.164A4.157,4.157,0,0,0,8.118,6.194Zm0,6.87a2.707,2.707,0,1,1,2.707-2.707,2.712,2.712,0,0,1-2.707,2.707Zm5.3-7.041a.971.971,0,1,1-.971-.971A.969.969,0,0,1,13.423,6.023Zm2.758.986a4.806,4.806,0,0,0-1.312-3.4,4.837,4.837,0,0,0-3.4-1.312c-1.341-.076-5.359-.076-6.7,0A4.831,4.831,0,0,0,1.364,3.6a4.822,4.822,0,0,0-1.312,3.4c-.076,1.341-.076,5.359,0,6.7a4.806,4.806,0,0,0,1.312,3.4,4.844,4.844,0,0,0,3.4,1.312c1.341.076,5.359.076,6.7,0a4.806,4.806,0,0,0,3.4-1.312,4.837,4.837,0,0,0,1.312-3.4c.076-1.341.076-5.356,0-6.7Zm-1.732,8.135A2.74,2.74,0,0,1,12.9,16.688c-1.069.424-3.605.326-4.787.326s-3.721.094-4.787-.326a2.74,2.74,0,0,1-1.544-1.544c-.424-1.069-.326-3.605-.326-4.787s-.094-3.721.326-4.787A2.74,2.74,0,0,1,3.331,4.027C4.4,3.6,6.937,3.7,8.118,3.7s3.721-.094,4.787.326a2.74,2.74,0,0,1,1.544,1.544c.424,1.069.326,3.605.326,4.787S14.872,14.079,14.448,15.144Z" transform="translate(0.005 -2.238)" fill="#fff"/>
</svg>
