<svg xmlns="http://www.w3.org/2000/svg" width="18.553" height="15.068" viewBox="0 0 18.553 15.068">
  <path id="Icon_awesome-twitter" data-name="Icon awesome-twitter" d="M16.646,7.136c.012.165.012.33.012.494A10.744,10.744,0,0,1,5.839,18.449,10.745,10.745,0,0,1,0,16.742a7.866,7.866,0,0,0,.918.047,7.615,7.615,0,0,0,4.721-1.625,3.809,3.809,0,0,1-3.555-2.637,4.8,4.8,0,0,0,.718.059,4.022,4.022,0,0,0,1-.129A3.8,3.8,0,0,1,.753,8.725V8.678a3.829,3.829,0,0,0,1.719.483A3.808,3.808,0,0,1,1.295,4.075a10.808,10.808,0,0,0,7.84,3.979,4.292,4.292,0,0,1-.094-.871,3.806,3.806,0,0,1,6.581-2.6,7.486,7.486,0,0,0,2.413-.918,3.792,3.792,0,0,1-1.672,2.1,7.623,7.623,0,0,0,2.19-.589,8.174,8.174,0,0,1-1.907,1.966Z" transform="translate(0 -3.381)" fill="#fff"/>
</svg>
