<svg xmlns="http://www.w3.org/2000/svg" width="18.546" height="12.961" viewBox="0 0 18.546 12.961">
  <path id="Icon_simple-youtube" data-name="Icon simple-youtube" d="M18.166,7.425a2.325,2.325,0,0,0-1.614-1.614,55.7,55.7,0,0,0-7.263-.387,54.452,54.452,0,0,0-7.263.387A2.325,2.325,0,0,0,.411,7.425a24.155,24.155,0,0,0-.4,4.487,24.155,24.155,0,0,0,.4,4.47A2.325,2.325,0,0,0,2.025,18a55.573,55.573,0,0,0,7.263.388A55.706,55.706,0,0,0,16.552,18a2.325,2.325,0,0,0,1.614-1.614,24.155,24.155,0,0,0,.387-4.47,24.155,24.155,0,0,0-.387-4.487ZM7.432,14.689V9.128l4.842,2.784Z" transform="translate(-0.007 -5.424)" fill="#fff"/>
</svg>
